<?xml version="1.0" encoding="utf-8"?>
<svg width="800" height="600"
	xmlns="http://www.w3.org/2000/svg"
	xmlns:xhtml="http://www.w3.org/1999/xhtml"
	xmlns:xlink="http://www.w3.org/1999/xlink"
	xmlns:a="http://www.adobe.com/svg10-extensions" a:timeline="independent"
	version="1.1"
	baseProfile="full"
	onload="top.load(evt)">
	
	<defs>
		<radialGradient id="exitGrad" cx="50%" cy="50%" r="50%" fx="50%" fy="50%">
			<stop offset="0%" style="stop-color:rgb(255,255,255);stop-opacity:1" />
			<stop offset="100%" style="stop-color:rgb(111,162,247);stop-opacity:1" />
		</radialGradient>
		<radialGradient id="userGrad" cx="50%" cy="50%" r="50%" fx="50%" fy="50%">
			<stop offset="0%" style="stop-color:rgb(255,255,255);stop-opacity:1" />
			<stop offset="100%" style="stop-color:rgb(255,255,190);stop-opacity:1" />
		</radialGradient>
		<radialGradient id="monsterGrad" cx="33%" cy="79%" r="50%" fx="50%" fy="50%"
			spreadMethod="pad" gradientUnits="objectBoundingBox">
			<stop offset="0%" style="stop-color:rgb(255,255,255);stop-opacity:1"/>
			<stop offset="55%" style="stop-color:rgb(255,0,0);stop-opacity:1"/>
			<stop offset="100%" style="stop-color:rgb(255,255,255);stop-opacity:0"/>
		</radialGradient>
		<!--
<linearGradient id="platformGrad" x1="50%" y1="0%" x2="50%" y2="100%">
            <stop stop-color="#D9006C" offset="10%"></stop>
            <stop stop-color="#BF0060" offset="90%"></stop>
        </linearGradient>
-->
		
		<clipPath id="gameclip">
			<rect x="800" y="600" width="0" height="0">
				<animate id="effect" attributeName="x" attributeType="XML" values="400;0"
					begin="norm.click;zoom.click" dur="2s" fill="freeze"/>
				<animate attributeName="y" attributeType="XML" values="300;0"
					begin="effect.begin" dur="2s" fill="freeze"/>
				<animate attributeName="width" attributeType="XML" values="0;800"
					begin="effect.begin" dur="2s" fill="freeze"/>
				<animate attributeName="height" attributeType="XML" values="0;600"
					begin="effect.begin" dur="2s" fill="freeze"/>
			</rect>
		</clipPath>
		<clipPath id="gameareaclip">
      <rect x="20" y="20" rx="10" ry="10" width="600" height="560"/>
    </clipPath>
		<clipPath id="instructionclip">
			<rect x="800" y="600" width="0" height="0">
				<animate id="effect2" attributeName="x" attributeType="XML" values="400;0"
					begin="again.click;0s" dur="2s" fill="freeze"/>
				<animate attributeName="y" attributeType="XML" values="300;0"
					begin="effect2.begin" dur="2s" fill="freeze"/>
				<animate attributeName="width" attributeType="XML" values="0;800"
					begin="effect2.begin" dur="2s" fill="freeze"/>
				<animate attributeName="height" attributeType="XML" values="0;600"
					begin="effect2.begin" dur="2s" fill="freeze"/>
			</rect>
		</clipPath>
		
		<pattern id="background_pattern" x="0" y="0" width="20" height="20" patternUnits="userSpaceOnUse">
			<rect width="20" height="20" style="fill:black"/>
			<circle cx="20" cy="20" r="4" style="fill:rgb(255,0,205)"/>
			<circle cx="15" cy="15" r="4" style="fill:rgb(255,0,205)"/>
			<circle cx="10" cy="10" r="4" style="fill:rgb(255,0,205)"/>
			<circle cx="5" cy="5" r="4" style="fill:rgb(255,0,205)"/>
			<circle cx="0" cy="0" r="4" style="fill:rgb(255,0,205)"/>
			<circle cx="0" cy="20" r="4" style="fill:rgb(255,0,205)"/>
			<circle cx="20" cy="0" r="4" style="fill:rgb(255,0,205)"/>
		</pattern>
		
		<g id="monster">
			<g transform="matrix(0.286648 0 0 0.255868 -158.975 -124.913)">
				<g transform="translate(447.45 -63.8718)">
					<path transform="matrix(0.707107 0.707107 -0.707107 0.707107 537.559 145.958)"
						d="M178.456 592.036 C178.437 590.185 178.456 591.108 178.456 592.036 C178.456 632.845
							141.455 665.928 95.813 665.928 C50.1707 665.928 13.1703 632.845 13.1703 592.036
							C13.1703 552.153 48.508 519.651 95.813 518.143 L95.813 592.036 z"
						 style="opacity:1;fill:rgb(255,251,0);fill-opacity:1;fill-rule:nonzero;stroke:rgb(255,255,0);
						stroke-width:2.5;stroke-linecap:round;stroke-miterlimit:4;stroke-dasharray:none;stroke-opacity:0.0628571;
						"/>
					<g transform="matrix(5.26572 0 0 5.26572 -717.65 -1999.36)">
						<path style="fill:rgb(255,255,0);fill-opacity:1;stroke:rgb(0,0,0);stroke-width:0.927927;stroke-miterlimit:4;
							stroke-dasharray:none;stroke-opacity:1"
							transform="matrix(0.381014 0.381014 -0.381014 0.381014 353.424 193.015)"
							d="M191.171 641.167 C191.127 639.356 191.171 640.256 191.171 641.167 C191.171 656.195
								178.989 668.378 163.96 668.378 C148.932 668.378 136.749 656.195 136.749
								641.167 C136.749 626.139 148.932 613.956 163.96 613.956 L163.96 613.956 L163.96
								641.167 z"/>
					</g>
					<path style="fill:rgb(255,255,255);fill-opacity:0.588571;fill-rule:evenodd;stroke:none;stroke-width:1px;
						stroke-linecap:butt;stroke-linejoin:miter;stroke-opacity:1"
						d="M160.16 570.469 C152.042 572.647 133.069 584.529 123.821 608.625 C116.678 627.233
							121.73 649.881 125.511 653.908 C131.025 659.778 138.937 639.336 145.439 618.583
							C151.359 599.685 168.359 568.269 160.16 570.469 z"/>
				</g>
			</g>
			<ellipse cx="22" cy="8.5" rx="5" ry="4.5"
				transform="translate(-5.10638 5.3617) translate(5.44681 -5.19149)"
				 style="fill:rgb(255,255,255);stroke:rgb(0,0,0);stroke-width:1"/>
			<ellipse cx="25" cy="8.5" rx="1.5" ry="1.5"
				 style="fill:rgb(0,0,0);stroke:rgb(0,0,0)">
				<animateTransform attributeName="transform" dur="1s" type="rotate"
					repeatCount="indefinite" from="0 23 8.5" to="360 23 8.5"/>
			</ellipse>
		</g>
		
		<g id="bullet">
			<circle cx="5" cy="5" r="5" style="fill:red"/>
			<circle cx="6" cy="3" r="1" style="fill:pink"/>
		</g>
		<g id="monBullet">
			<circle cx="5" cy="5" r="5" style="fill:orange"/>
			<circle cx="6" cy="3" r="1" style="fill:yellow"/>
		</g>
		<g id="flower" transform="matrix(0.118626 0 0 0.118626 0 0)">
		<g>
			<animateTransform attributeName="transform" dur="7s" type="rotate"
					repeatCount="indefinite" from="0 168.597 168.597" to="360 168.597 168.597"/>
			<path
				d="M168.597 168.597 C168.597 168.597 198.039 152.229 198.039 84.298 C198.039 16.368
					168.597 0 168.597 0 C168.597 0 139.156 16.368 139.156 84.298 C139.156 152.229
					168.597 168.597 168.597 168.597 z"
				 style="fill:rgb(245,158,206)"/>
			<path
				d="M168.597 168.597 C168.597 168.597 185.91 139.701 151.945 80.871 C117.98 22.042 84.299
					22.588 84.299 22.588 C84.299 22.588 66.987 51.484 100.951 110.313 C134.915
					169.142 168.597 168.597 168.597 168.597 z"
				 style="fill:rgb(245,158,206)"/>
			<path
				d="M168.597 168.597 C168.597 168.597 169.142 134.916 110.313 100.951 C51.484 66.985
					22.587 84.298 22.587 84.298 C22.587 84.298 22.042 117.98 80.871 151.944 C139.701
					185.909 168.597 168.597 168.597 168.597 z"
				 style="fill:rgb(245,158,206)"/>
			<path
				d="M168.597 168.597 C168.597 168.597 152.229 139.156 84.299 139.156 C16.369 139.155
					0 168.597 0 168.597 C0 168.597 16.369 198.038 84.298 198.038 C152.229 198.038
					168.597 168.597 168.597 168.597 z"
				 style="fill:rgb(245,158,206)"/>
			<path
				d="M168.597 168.597 C168.597 168.597 139.701 151.285 80.872 185.249 C22.043 219.214
					22.588 252.895 22.588 252.895 C22.588 252.895 51.484 270.207 110.314 236.243
					C169.144 202.279 168.597 168.597 168.597 168.597 z"
				 style="fill:rgb(245,158,206)"/>
			<path
				d="M168.597 168.597 C168.597 168.597 134.916 168.052 100.951 226.882 C66.986 285.71
					84.299 314.607 84.299 314.607 C84.299 314.607 117.98 315.152 151.945 256.324
					C185.91 197.493 168.597 168.597 168.597 168.597 z"
				 style="fill:rgb(245,158,206)"/>
			<path
				d="M168.597 168.597 C168.597 168.597 139.156 184.966 139.156 252.895 C139.156 320.824
					168.597 337.194 168.597 337.194 C168.597 337.194 198.039 320.825 198.039
					252.895 C198.039 184.965 168.597 168.597 168.597 168.597 z"
				 style="fill:rgb(245,158,206)"/>
			<path
				d="M168.597 168.597 C168.597 168.597 151.285 197.493 185.25 256.323 C219.215 315.151
					252.896 314.606 252.896 314.606 C252.896 314.606 270.208 285.71 236.243 226.881
					C202.278 168.052 168.597 168.597 168.597 168.597 z"
				 style="fill:rgb(245,158,206)"/>
			<path
				d="M168.597 168.597 C168.597 168.597 168.052 202.278 226.881 236.243 C285.711 270.208
					314.607 252.895 314.607 252.895 C314.607 252.895 315.153 219.213 256.323
					185.249 C197.494 151.284 168.597 168.597 168.597 168.597 z"
				 style="fill:rgb(245,158,206)"/>
			<path
				d="M168.597 168.597 C168.597 168.597 184.966 198.038 252.896 198.038 C320.826 198.038
					337.194 168.597 337.194 168.597 C337.194 168.597 320.826 139.156 252.896
					139.156 C184.965 139.155 168.597 168.597 168.597 168.597 z"
				 style="fill:rgb(245,158,206)"/>
			<path
				d="M168.597 168.597 C168.597 168.597 197.494 185.909 256.322 151.945 C315.152 117.98
					314.606 84.299 314.606 84.299 C314.606 84.299 285.71 66.987 226.88 100.952
					C168.051 134.916 168.597 168.597 168.597 168.597 z"
				 style="fill:rgb(245,158,206)"/>
			<path
				d="M168.597 168.597 C168.597 168.597 202.278 169.142 236.243 110.313 C270.209 51.484
					252.896 22.588 252.896 22.588 C252.896 22.588 219.214 22.042 185.25 80.871
					C151.284 139.7 168.597 168.597 168.597 168.597 z"
				 style="fill:rgb(245,158,206)"/>
		</g>
		<g>
			<animateTransform attributeName="transform" dur="5s" type="rotate"
					repeatCount="indefinite" from="360 168.597 168.597" to="0 168.597 168.597"/>
			<path
				d="M168.597 168.597 C168.597 168.597 189.139 148.709 174.216 93.017 C159.293 37.326
					131.56 30.373 131.56 30.373 C131.56 30.373 111.018 50.26 125.941 105.952 C140.864
					161.645 168.597 168.597 168.597 168.597 z"
				 style="fill:rgb(249,20,13)"/>
			<path
				d="M168.597 168.597 C168.597 168.597 176.443 141.103 135.674 100.333 C94.905 59.563
					67.41 67.41 67.41 67.41 C67.41 67.41 59.564 94.903 100.334 135.673 C141.104
					176.442 168.597 168.597 168.597 168.597 z"
				 style="fill:rgb(249,20,13)"/>
			<path
				d="M168.597 168.597 C168.597 168.597 161.645 140.864 105.953 125.941 C50.261 111.019
					30.373 131.56 30.373 131.56 C30.373 131.56 37.325 159.293 93.018 174.216 C148.709
					189.137 168.597 168.597 168.597 168.597 z"
				 style="fill:rgb(249,20,13)"/>
			<path
				d="M168.597 168.597 C168.597 168.597 148.71 148.055 93.017 162.978 C37.325 177.901 30.372
					205.634 30.372 205.634 C30.372 205.634 50.259 226.175 105.952 211.253
					C161.645 196.329 168.597 168.597 168.597 168.597 z"
				 style="fill:rgb(249,20,13)"/>
			<path
				d="M168.597 168.597 C168.597 168.597 141.104 160.751 100.334 201.52 C59.564 242.29 67.41
					269.784 67.41 269.784 C67.41 269.784 94.904 277.63 135.673 236.86 C176.442
					196.09 168.597 168.597 168.597 168.597 z"
				 style="fill:rgb(249,20,13)"/>
			<path
				d="M168.597 168.597 C168.597 168.597 140.864 175.549 125.941 231.241 C111.019 286.934
					131.56 306.821 131.56 306.821 C131.56 306.821 159.293 299.868 174.216 244.176
					C189.138 188.483 168.597 168.597 168.597 168.597 z"
				 style="fill:rgb(249,20,13)"/>
			<path
				d="M168.597 168.597 C168.597 168.597 148.055 188.485 162.978 244.177 C177.901 299.869
					205.634 306.822 205.634 306.822 C205.634 306.822 226.175 286.935 211.253
					231.242 C196.33 175.549 168.597 168.597 168.597 168.597 z"
				 style="fill:rgb(249,20,13)"/>
			<path
				d="M168.597 168.597 C168.597 168.597 160.751 196.091 201.521 236.86 C242.291 277.63
					269.784 269.784 269.784 269.784 C269.784 269.784 277.63 242.29 236.86 201.52
					C196.09 160.751 168.597 168.597 168.597 168.597 z"
				 style="fill:rgb(249,20,13)"/>
			<path
				d="M168.597 168.597 C168.597 168.597 175.549 196.329 231.242 211.253 C286.933 226.175
					306.821 205.634 306.821 205.634 C306.821 205.634 299.869 177.902 244.177
					162.978 C188.484 148.055 168.597 168.597 168.597 168.597 z"
				 style="fill:rgb(249,20,13)"/>
			<path
				d="M168.597 168.597 C168.597 168.597 188.484 189.138 244.177 174.215 C299.868 159.293
					306.821 131.56 306.821 131.56 C306.821 131.56 286.933 111.019 231.242 125.941
					C175.549 140.863 168.597 168.597 168.597 168.597 z"
				 style="fill:rgb(249,20,13)"/>
			<path
				d="M168.597 168.597 C168.597 168.597 196.09 176.442 236.86 135.673 C277.631 94.903 269.784
					67.41 269.784 67.41 C269.784 67.41 242.291 59.563 201.521 100.333 C160.751
					141.104 168.597 168.597 168.597 168.597 z"
				 style="fill:rgb(249,20,13)"/>
			<path
				d="M168.597 168.597 C168.597 168.597 196.329 161.645 211.253 105.952 C226.175 50.26
					205.634 30.373 205.634 30.373 C205.634 30.373 177.9 37.325 162.978 93.017 C148.055
					148.709 168.597 168.597 168.597 168.597 z"
				 style="fill:rgb(249,20,13)"/>
		</g>
		<g>
			<path
				d="M168.597 168.597 C168.597 168.597 179.803 149.894 157.819 111.817 C135.835 73.74
					114.035 74.092 114.035 74.092 C114.035 74.092 102.829 92.795 124.813 130.872
					C146.797 168.949 168.597 168.597 168.597 168.597 z"
				 style="fill:rgb(126,14,7)"/>
			<path
				d="M168.597 168.597 C168.597 168.597 168.951 146.797 130.873 124.813 C92.796 102.83
					74.093 114.035 74.093 114.035 C74.093 114.035 73.74 135.836 111.817 157.819
					C149.894 179.803 168.597 168.597 168.597 168.597 z"
				 style="fill:rgb(126,14,7)"/>
			<path
				d="M168.597 168.597 C168.597 168.597 158.003 149.541 114.035 149.541 C70.067 149.541
					59.473 168.597 59.473 168.597 C59.473 168.597 70.067 187.653 114.035 187.653
					C158.002 187.653 168.597 168.597 168.597 168.597 z"
				 style="fill:rgb(126,14,7)"/>
			<path
				d="M168.597 168.597 C168.597 168.597 149.894 157.391 111.817 179.376 C73.74 201.358
					74.093 223.159 74.093 223.159 C74.093 223.159 92.796 234.364 130.873 212.382
					C168.95 190.397 168.597 168.597 168.597 168.597 z"
				 style="fill:rgb(126,14,7)"/>
			<path
				d="M168.597 168.597 C168.597 168.597 146.797 168.244 124.814 206.321 C102.83 244.399
					114.036 263.1 114.036 263.1 C114.036 263.1 135.836 263.454 157.82 225.375
					C179.802 187.299 168.597 168.597 168.597 168.597 z"
				 style="fill:rgb(126,14,7)"/>
			<path
				d="M168.597 168.597 C168.597 168.597 149.542 179.192 149.542 223.159 C149.542 267.126
					168.598 277.721 168.598 277.721 C168.598 277.721 187.654 267.125 187.654
					223.159 C187.654 179.193 168.597 168.597 168.597 168.597 z"
				 style="fill:rgb(126,14,7)"/>
			<path
				d="M168.597 168.597 C168.597 168.597 157.392 187.3 179.375 225.376 C201.359 263.454
					223.159 263.101 223.159 263.101 C223.159 263.101 234.365 244.4 212.381 206.322
					C190.397 168.244 168.597 168.597 168.597 168.597 z"
				 style="fill:rgb(126,14,7)"/>
			<path
				d="M168.597 168.597 C168.597 168.597 168.244 190.397 206.322 212.382 C244.398 234.364
					263.101 223.159 263.101 223.159 C263.101 223.159 263.455 201.358 225.376
					179.376 C187.3 157.391 168.597 168.597 168.597 168.597 z"
				 style="fill:rgb(126,14,7)"/>
			<path
				d="M168.597 168.597 C168.597 168.597 179.191 187.653 223.16 187.653 C267.127 187.653
					277.722 168.597 277.722 168.597 C277.722 168.597 267.127 149.541 223.16 149.541
					C179.191 149.541 168.597 168.597 168.597 168.597 z"
				 style="fill:rgb(126,14,7)"/>
			<path
				d="M168.597 168.597 C168.597 168.597 187.3 179.802 225.376 157.819 C263.454 135.836
					263.101 114.035 263.101 114.035 C263.101 114.035 244.398 102.83 206.322 124.813
					C168.244 146.797 168.597 168.597 168.597 168.597 z"
				 style="fill:rgb(126,14,7)"/>
			<path
				d="M168.597 168.597 C168.597 168.597 190.397 168.95 212.38 130.872 C234.364 92.795 223.159
					74.092 223.159 74.092 C223.159 74.092 201.358 73.739 179.374 111.817
					C157.392 149.894 168.597 168.597 168.597 168.597 z"
				 style="fill:rgb(126,14,7)"/>
			<path 
				d="M168.597 168.597 C168.597 168.597 187.653 158.002 187.653 114.035 C187.653 70.066
					168.597 59.473 168.597 59.473 C168.597 59.473 149.541 70.067 149.541 114.035
					C149.542 158.002 168.597 168.597 168.597 168.597 z"
				 style="fill:rgb(126,14,7)"/>
		</g>
		<g >
			<path 
				d="M168.597 168.597 C168.597 168.597 172.933 153.403 150.403 130.872 C127.872 108.342
					112.678 112.678 112.678 112.678 C112.678 112.678 108.342 127.871 130.873
					150.403 C153.403 172.933 168.597 168.597 168.597 168.597 z"
				 style="fill:rgb(159,14,51)"/>
			<path 
				d="M168.597 168.597 C168.597 168.597 164.755 153.271 133.978 145.024 C103.201 136.778
					92.21 148.129 92.21 148.129 C92.21 148.129 96.052 163.455 126.829 171.702
					C157.607 179.948 168.597 168.597 168.597 168.597 z"
				 style="fill:rgb(159,14,51)"/>
			<path 
				d="M168.597 168.597 C168.597 168.597 157.607 157.245 126.83 165.492 C96.053 173.739
					92.21 189.066 92.21 189.066 C92.21 189.066 103.2 200.418 133.978 192.171 C164.755
					183.922 168.597 168.597 168.597 168.597 z"
				 style="fill:rgb(159,14,51)"/>
			<path 
				d="M168.597 168.597 C168.597 168.597 153.403 164.261 130.872 186.792 C108.341 209.323
					112.677 224.517 112.677 224.517 C112.677 224.517 127.871 228.853 150.402
					206.322 C172.933 183.792 168.597 168.597 168.597 168.597 z"
				 style="fill:rgb(159,14,51)"/>
			<path
				d="M168.597 168.597 C168.597 168.597 153.271 172.439 145.024 203.216 C136.777 233.993
					148.129 244.984 148.129 244.984 C148.129 244.984 163.456 241.142 171.702
					210.365 C179.949 179.586 168.597 168.597 168.597 168.597 z"
				 style="fill:rgb(159,14,51)"/>
			<path
				d="M168.597 168.597 C168.597 168.597 157.245 179.587 165.492 210.364 C173.739 241.141
					189.065 244.983 189.065 244.983 C189.065 244.983 200.418 233.993 192.169
					203.215 C183.923 172.438 168.597 168.597 168.597 168.597 z"
				 style="fill:rgb(159,14,51)"/>
			<path
				d="M168.597 168.597 C168.597 168.597 164.262 183.792 186.792 206.321 C209.322 228.852
					224.516 224.516 224.516 224.516 C224.516 224.516 228.853 209.323 206.323
					186.791 C183.791 164.261 168.597 168.597 168.597 168.597 z"
				 style="fill:rgb(159,14,51)"/>
			<path
				d="M168.597 168.597 C168.597 168.597 172.439 183.923 203.217 192.171 C233.994 200.417
					244.985 189.066 244.985 189.066 C244.985 189.066 241.143 173.739 210.366
					165.492 C179.587 157.245 168.597 168.597 168.597 168.597 z"
				 style="fill:rgb(159,14,51)"/>
			<path 
				d="M168.597 168.597 C168.597 168.597 179.588 179.948 210.365 171.702 C241.142 163.455
					244.984 148.129 244.984 148.129 C244.984 148.129 233.994 136.777 203.216
					145.024 C172.439 153.271 168.597 168.597 168.597 168.597 z"
				 style="fill:rgb(159,14,51)"/>
			<path
				d="M168.597 168.597 C168.597 168.597 183.79 172.933 206.321 150.402 C228.852 127.872
					224.515 112.678 224.515 112.678 C224.515 112.678 209.322 108.342 186.791 130.872
					C164.261 153.402 168.597 168.597 168.597 168.597 z"
				 style="fill:rgb(159,14,51)"/>
			<path 
				d="M168.597 168.597 C168.597 168.597 183.923 164.755 192.169 133.978 C200.416 103.201
					189.065 92.21 189.065 92.21 C189.065 92.21 173.739 96.052 165.492 126.829
					C157.245 157.606 168.597 168.597 168.597 168.597 z"
				 style="fill:rgb(159,14,51)"/>
			<path
				d="M168.597 168.597 C168.597 168.597 179.949 157.606 171.702 126.829 C163.455 96.052
					148.128 92.21 148.128 92.21 C148.128 92.21 136.776 103.2 145.023 133.978 C153.271
					164.755 168.597 168.597 168.597 168.597 z"
				 style="fill:rgb(159,14,51)"/>
		</g>
		<circle cx="168.597" cy="168.597" r="40.012" style="fill:rgb(222,128,18)"/>
	</g>
	</defs>

	<!-- Start page -->
	<g id="startpage" style="clip-path:url(#instructionclip)">
		<rect x="0" y="0" width="800" height="600" style="fill:rgb(0,0,0)"/>
		<text x="400" y="80" style="fill:rgb(175,90,255);font-size:40px;text-anchor:middle">Flower Collecter</text>
		<text x="400" y="130" style="fill:rgb(175,90,255);font-size:30px;text-anchor:middle">Collect as much flower as you can. Use 'N' key to go left,</text>
		<text x="400" y="170" style="fill:rgb(175,90,255);font-size:30px;text-anchor:middle"> 'M' key to go right and 'Z' key to jump. Guards are</text>
		<text x="400" y="210" style="fill:rgb(175,90,255);font-size:30px;text-anchor:middle"> going to stop you on the way. Use the spacebar to shoot</text>
		<text x="400" y="250" style="fill:rgb(175,90,255);font-size:30px;text-anchor:middle"> and kill them. Pick up the flowers and go to the exit </text>
		<text x="400" y="290" style="fill:rgb(175,90,255);font-size:30px;text-anchor:middle"> quickly. Each flower worth 5 points, and guard worth 10</text>
		<text x="400" y="330" style="fill:rgb(175,90,255);font-size:30px;text-anchor:middle"> points. Every remain sec worth 5 points. You can earn </text>
		<text x="400" y="370" style="fill:rgb(175,90,255);font-size:30px;text-anchor:middle"> double points in zoom mode, which is much harder.</text>
		<text x="600" y="580" style="fill:rgb(80,155,155);font-size:30px;text-anchor:middle"> MAR Chun Sum (20057384)</text>
		
		<g id="zoom" onclick="top.zoomMode()" >
			<rect x="500" y="450" width="150" height="40"
				style="fill:white;stroke:rgb(255,0,205);stroke-width:4" />
			<text x="575" y="480"
				style="fill:rgb(175,90,255);font-size:25px;text-anchor:middle">Zoom Mode</text>
		</g>
			
		<g id="norm" onclick="top.normalMode()">
			<rect x="200" y="450" width="150" height="40"
				style="fill:white;stroke:rgb(255,0,205);stroke-width:4" />
			<text x="275" y="480"
				style="fill:rgb(175,90,255);font-size:25px;text-anchor:middle">Normal Mode</text>
		</g>
	</g>
	
	<g id="game" style="clip-path:url(#gameclip)">
		<rect width="800" height="600" style="fill:url(#background_pattern);stroke:purple;stroke-width:5" />
		
		<rect x="20" y="20" width="600" height="560" style="fill:black;stroke:purple;stroke-width:5" />
		
		<!-- Level -->
		<g transform="translate(640, 100)">
			<text x="70" y="0"
				style="fill:white;font-size:25px;font-weight:bold;text-anchor:middle">
					Level:
			</text>
			<rect x="0" y="10" width="140" height="35" style="fill:white;stroke:purple;stroke-width:3" />
			<text id="Level" x="70" y="36"
				style="fill:rgb(175,90,255);font-size:25px;text-anchor:middle">1</text>
		</g>
		
		<!-- Score -->
		<g transform="translate(640, 200)">
			<text x="70" y="0"
				style="fill:white;font-size:25px;font-weight:bold;text-anchor:middle">
					Score:
			</text>
			<rect x="0" y="10" width="140" height="35" style="fill:white;stroke:purple;stroke-width:3" />
			<text id="score" x="70" y="36"
				style="fill:rgb(175,90,255);font-size:25px;text-anchor:middle">0</text>
		</g>
		
		<!-- Time -->
		<g transform="translate(640, 300)">
			<text x="70" y="0"
				style="fill:white;font-size:25px;font-weight:bold;text-anchor:middle">
					Time:
			</text>
			<rect x="0" y="10" width="140" height="35" style="fill:white;stroke:purple;stroke-width:3" />
			<text id="TimeRemain" x="70" y="36"
				style="fill:rgb(175,90,255);font-size:25px;text-anchor:middle">100</text>
		</g>
		
		<!-- Bullet remain -->
		<g transform="translate(640, 400)">
			<text x="70" y="0"
				style="fill:white;font-size:25px;font-weight:bold;text-anchor:middle">
					Bullet Remain:
			</text>
			<rect x="0" y="10" width="140" height="35" style="fill:white;stroke:purple;stroke-width:3" />
			<text id="bulletRemain" x="70" y="36"
				style="fill:rgb(175,90,255);font-size:25px;text-anchor:middle">8</text>
		</g>
		
		<!-- cheat mode -->
		<g id="cheat" transform="translate(710,500)" style = "visibility:hidden">
			<text x="0" y="0"
			style="fill:yellow;font-size:25px;font-weight:bold;text-anchor:middle">
				Cheat Mode
		</text>
		</g>
					
		<!-- Move Area -->
		<g style="clip-path:url(#gameareaclip)">
			<g transform="translate(20,20)">
				<g id="gamearea" transform="translate(0,0)" width="600" height="560">
					<rect x="0" y="0" width="600" height="560" style="fill:black" />
				
					<!-- Platform -->
					<g id="platforms">
					
						<rect x="0" y="60" width="60" height="20" style="fill:#B7FF4A"/>
						<rect x="40" y="80" width="60" height="20" style="fill:#B7FF4A"/>
						<rect x="80" y="100" width="60" height="20" style="fill:#B7FF4A"/>
						<rect x="80" y="120" width="140" height="20" style="fill:#B7FF4A"/>
						
						<rect x="460" y="40" width="140" height="20" style="fill:#B7FF4A"/>
						<rect x="420" y="60" width="180" height="20" style="fill:#B7FF4A"/>
						<rect x="380" y="80" width="160" height="20" style="fill:#B7FF4A"/>
						
						<rect x="360" y="160" width="140" height="20" style="fill:#B7FF4A"/>
						<rect x="320" y="180" width="80" height="20" style="fill:#B7FF4A"/>
						<rect x="280" y="200" width="60" height="20" style="fill:#B7FF4A"/>
						<rect x="320" y="220" width="20" height="20" style="fill:#B7FF4A"/>
						
						<rect x="40" y="200" width="20" height="40" style="fill:rgb(155, 250, 0)"/>
						<rect x="60" y="180" width="20" height="60" style="fill:rgb(155, 250, 0)"/>
						<rect x="0" y="240" width="120" height="20" style="fill:rgb(155, 250, 0)"/>
						
						<rect x="520" y="260" width="80" height="20" style="fill:rgb(155, 250, 0)"/>
						<rect x="440" y="280" width="160" height="20" style="fill:rgb(155, 250, 0)"/>
						
						<rect x="250" y="300" width="40" height="20" style="fill:rgb(155, 250, 0)"/>
						<rect x="250" y="320" width="120" height="20" style="fill:rgb(155, 250, 0)"/>
						<rect x="250" y="340" width="160" height="20" style="fill:rgb(155, 250, 0)"/>
						
						<rect x="520" y="360" width="80" height="20" style="fill:#588F00"/>
						<rect x="500" y="380" width="100" height="20" style="fill:#588F00"/>
						<rect x="460" y="400" width="140" height="20" style="fill:#588F00"/>
						<rect x="420" y="420" width="120" height="20" style="fill:#588F00"/>
	
						<rect x="420" y="420" width="120" height="20" style="fill:#588F00"/>
						
						<rect x="0" y="320" width="60" height="20" style="fill:#588F00"/>
						<rect x="0" y="340" width="100" height="20" style="fill:#588F00"/>
						<rect x="0" y="360" width="140" height="20" style="fill:#588F00"/>
						<rect x="0" y="380" width="100" height="20" style="fill:#588F00"/>
						<rect x="0" y="400" width="80" height="20" style="fill:#588F00"/>
						<rect x="0" y="420" width="60" height="20" style="fill:#588F00"/>
						
						<rect x="220" y="400" width="40" height="20" style="fill:#588F00"/>
						<rect x="200" y="420" width="180" height="20" style="fill:#588F00"/>
						<rect x="140" y="440" width="140" height="20" style="fill:#588F00"/>
						
						<rect x="0" y="480" width="40" height="20" style="fill:rgb(55,90,0)"/>
						<rect x="0" y="500" width="80" height="40" style="fill:rgb(55,90,0)"/>
						<rect x="120" y="520" width="80" height="20" style="fill:rgb(55,90,0)"/>
						<rect x="300" y="520" width="80" height="20" style="fill:rgb(55,90,0)"/>
						<rect x="520" y="480" width="40" height="40" style="fill:rgb(55,90,0)"/>
						<rect x="480" y="520" width="120" height="20" style="fill:rgb(55,90,0)"/>
						<rect x="0" y="540" width="600" height="20" style="fill:rgb(55,90,0)"/>
						
						<rect id="verticalPlatform" x="180" y="360" width="40" height="20" style="fill:#613030;opacity:0.9" rx="5.79165" ry="5.79165"/>
						
					</g>
					
					<!-- transmission ports -->
					<g id="port1" transform="translate(590,0)">
						<ellipse cx="5" cy="20" rx="4" ry="19" style="fill:rgb(101,245,243);stroke:rgb(0,0,0);stroke-width:2"/>
					</g>
					<g id="port2" transform="translate(0,440)">
						<ellipse cx="5" cy="20" rx="4" ry="19" style="fill:rgb(101,245,243);stroke:rgb(0,0,0);stroke-width:2"/>
					</g>
					
					<!-- door -->
					<g id="door" style = "visibility:hidden" transform="translate(1,1)" >
						<rect x="0" y="0" width="40" height="40"
							style="fill:url(#exitGrad);stroke:rgb(0,0,0);stroke-width:2"/>
						<text x="4" y="25"	
							style="fill:rgb(0,0,0);font-family:Arial;font-size:14">EXIT</text>
					</g>
					
					<g id="monsters"/>
					
					<g id="bullets"/>
					
					<g id="flowers"/>
					
					<!-- Player -->
					<g>
						<text id="nameBar" x="0" y="0"
							style="fill:pink;font-size:16px;text-anchor:middle">Anonymous</text>
					</g>
					<g id="player">
						<ellipse cx="20" cy="23.5" rx="20" ry="16.5"
							 style="fill:url(#userGrad);stroke:rgb(0,0,0);stroke-width:2"/>
						<path d="M27 23.8571 C27 31.814 30.0165 31.9011 36.1429 27"
							 style="fill:none;stroke:rgb(0,0,0);stroke-width:2"/>
						<path d="M26.7143 24.7143 C22.3728 27.8718 13.7987 32.5973 10.7143 26.4286"
							 style="fill:none;stroke:rgb(0,0,0);stroke-width:2"/>
						<path d="M29.8889 17.2222 C29.8889 17.2222 33.2222 17.2222 34.3333 17.2222"
							 style="fill:none;stroke:rgb(0,0,0);stroke-width:2"/>
						<path d="M24.7778 17.2222 C24.7778 17.2222 19.4444 17.5556 17.6667 17.6667"
							 style="fill:none;stroke:rgb(0,0,0);stroke-width:2"/>
					</g>
				</g>
				<!-- High Score Table -->
				<g id="highscoretable"  style = " visibility : hidden" transform="translate(40,40)">
					<rect width="520" height="480" style="fill:white;stroke:gold;stroke-width:2"/>
					
					<text x="260" y="40"
						style="fill:red;font-size:40px;font-weight:bold;text-anchor:middle">
							Game Over!!
					</text>
	
					
					<text x="260" y="80"
						style="fill:gold;font-size:30px;font-weight:bold;text-anchor:middle">
							High Score Table
					</text>
					<text id="highscoretext" y="85" style="font-size: 20px;font-weight:bold"/>
					<g id="again" onclick="top.again()" transform="translate(220,420)">
						<rect x="0" y="0" width="140" height="40"
							style="fill:white;stroke:red;stroke-width:2" />
						<text x="70" y="25" style="fill:red;font-size:22px;text-anchor:middle">
							Again?
						</text>
					</g>
				</g>
			</g>
		</g>
	</g>
</svg>
